{
  "source": "C:\\Users\\Peter\\Desktop\\stuff\\MIUN\\quantitative_research\\video_compression\\videos\\HEVC_CLASS_B\\BasketballDrive_1920x1080_50.y4m",
  "output": "C:\\Users\\Peter\\Desktop\\stuff\\MIUN\\quantitative_research\\video_compression\\compressed_videos\\HEVC_CLASS_B\\h264\\2.5\\BasketballDrive_1920x1080_50_h264.mp4",
  "codec": "h264",
  "ok": "Input #0, yuv4mpegpipe, from 'C:\\Users\\Peter\\Desktop\\stuff\\MIUN\\quantitative_research\\video_compression\\videos\\HEVC_CLASS_B\\BasketballDrive_1920x1080_50.y4m':\n  Duration: 00:00:10.00, start: 0.000000, bitrate: 1244162 kb/s\n  Stream #0:0: Video: rawvideo (I420 / 0x30323449), yuv420p(progressive), 1920x1080, 50 fps, 50 tbr, 50 tbn\n[out#0/mp4 @ 000001be8f059a40] Codec AVOption b:a (set bitrate (in bits/s)) has not been used for any stream. The most likely reason is either wrong type (e.g. a video option with no video streams) or that it is a private option of some decoder which was not actually used for any stream.\nStream mapping:\n  Stream #0:0 -> #0:0 (rawvideo (native) -> h264 (libx264))\nPress [q] to stop, [?] for help\n[libx264 @ 000001be8f05cac0] using cpu capabilities: MMX2 SSE2Fast SSSE3 SSE4.2 AVX FMA3 BMI2 AVX2\n[libx264 @ 000001be8f05cac0] profile High, level 5.0, 4:2:0, 8-bit\n[libx264 @ 000001be8f05cac0] 264 - core 165 r3222 b35605a - H.264/MPEG-4 AVC codec - Copyleft 2003-2025 - http://www.videolan.org/x264.html - options: cabac=1 ref=5 deblock=1:0:0 analyse=0x3:0x113 me=hex subme=8 psy=1 psy_rd=1.00:0.00 mixed_ref=1 me_range=16 chroma_me=1 trellis=2 8x8dct=1 cqm=0 deadzone=21,11 fast_pskip=1 chroma_qp_offset=-2 threads=18 lookahead_threads=3 sliced_threads=0 nr=0 decimate=1 interlaced=0 bluray_compat=0 constrained_intra=0 bframes=3 b_pyramid=2 b_adapt=1 b_bias=0 direct=3 weightb=1 open_gop=0 weightp=2 keyint=250 keyint_min=25 scenecut=40 intra_refresh=0 rc_lookahead=50 rc=cbr mbtree=1 bitrate=2500 ratetol=1.0 qcomp=0.60 qpmin=0 qpmax=69 qpstep=4 vbv_maxrate=2500 vbv_bufsize=2500 nal_hrd=none filler=0 ip_ratio=1.40 aq=1:1.00\nOutput #0, mp4, to 'C:\\Users\\Peter\\Desktop\\stuff\\MIUN\\quantitative_research\\video_compression\\compressed_videos\\HEVC_CLASS_B\\h264\\2.5\\BasketballDrive_1920x1080_50_h264.mp4':\n  Metadata:\n    encoder         : Lavf62.3.100\n  Stream #0:0: Video: h264 (avc1 / 0x31637661), yuv420p(tv, progressive), 1920x1080, q=2-31, 2500 kb/s, 50 fps, 12800 tbn\n    Metadata:\n      encoder         : Lavc62.11.100 libx264\n    Side data:\n      cpb: bitrate max/min/avg: 2500000/0/2500000 buffer size: 2500000 vbv_delay: N/A\nframe=    0 fps=0.0 q=0.0 size=       0KiB time=N/A bitrate=N/A speed=N/A elapsed=0:00:00.53    \nframe=    0 fps=0.0 q=0.0 size=       0KiB time=N/A bitrate=N/A speed=N/A elapsed=0:00:01.34    \nframe=    0 fps=0.0 q=0.0 size=       0KiB time=N/A bitrate=N/A speed=N/A elapsed=0:00:01.87    \nframe=   12 fps=4.8 q=42.0 size=       0KiB time=00:00:00.12 bitrate=   3.2kbits/s speed=0.0483x elapsed=0:00:02.48    \nframe=   30 fps=9.6 q=41.0 size=       0KiB time=00:00:00.46 bitrate=   0.8kbits/s speed=0.148x elapsed=0:00:03.11    \nframe=   44 fps= 11 q=41.0 size=       0KiB time=00:00:00.70 bitrate=   0.5kbits/s speed=0.182x elapsed=0:00:03.83    \nframe=   57 fps= 12 q=42.0 size=     256KiB time=00:00:01.10 bitrate=1906.9kbits/s speed=0.237x elapsed=0:00:04.63    \nframe=   68 fps= 13 q=42.0 size=     256KiB time=00:00:01.28 bitrate=1638.7kbits/s speed=0.247x elapsed=0:00:05.17    \nframe=   84 fps= 15 q=42.0 size=     256KiB time=00:00:01.52 bitrate=1380.0kbits/s speed=0.264x elapsed=0:00:05.75    \nframe=   94 fps= 15 q=42.0 size=     512KiB time=00:00:01.84 bitrate=2279.7kbits/s speed=0.286x elapsed=0:00:06.42    \nframe=  112 fps= 16 q=42.0 size=     512KiB time=00:00:02.10 bitrate=1997.5kbits/s speed=0.299x elapsed=0:00:07.01    \nframe=  121 fps= 16 q=42.0 size=     512KiB time=00:00:02.38 bitrate=1762.5kbits/s speed=0.31x elapsed=0:00:07.67    \nframe=  136 fps= 16 q=42.0 size=     768KiB time=00:00:02.68 bitrate=2347.7kbits/s speed=0.322x elapsed=0:00:08.31    \nframe=  141 fps= 16 q=42.0 size=     768KiB time=00:00:02.78 bitrate=2263.3kbits/s speed=0.314x elapsed=0:00:08.85    \nframe=  160 fps= 17 q=42.0 size=     768KiB time=00:00:03.10 bitrate=2029.6kbits/s speed=0.33x elapsed=0:00:09.38    \nframe=  168 fps= 17 q=42.0 size=    1024KiB time=00:00:03.32 bitrate=2526.8kbits/s speed=0.333x elapsed=0:00:09.96    \nframe=  184 fps= 17 q=41.0 size=    1024KiB time=00:00:03.56 bitrate=2356.5kbits/s speed=0.338x elapsed=0:00:10.53    \nframe=  200 fps= 18 q=41.0 size=    1024KiB time=00:00:03.96 bitrate=2118.4kbits/s speed=0.354x elapsed=0:00:11.17    \nframe=  220 fps= 19 q=41.0 size=    1280KiB time=00:00:04.22 bitrate=2484.9kbits/s speed=0.36x elapsed=0:00:11.72    \nframe=  230 fps= 19 q=41.0 size=    1280KiB time=00:00:04.56 bitrate=2299.6kbits/s speed=0.369x elapsed=0:00:12.36    \nframe=  238 fps= 18 q=41.0 size=    1280KiB time=00:00:04.72 bitrate=2221.6kbits/s speed=0.363x elapsed=0:00:12.99    \nframe=  254 fps= 19 q=41.0 size=    1280KiB time=00:00:05.04 bitrate=2080.6kbits/s speed=0.373x elapsed=0:00:13.51    \nframe=  270 fps= 19 q=41.0 size=    1536KiB time=00:00:05.36 bitrate=2347.6kbits/s speed=0.382x elapsed=0:00:14.01    \nframe=  279 fps= 19 q=41.0 size=    1536KiB time=00:00:05.54 bitrate=2271.4kbits/s speed=0.381x elapsed=0:00:14.53    \nframe=  294 fps= 20 q=41.0 size=    1536KiB time=00:00:05.84 bitrate=2154.7kbits/s speed=0.388x elapsed=0:00:15.04    \nframe=  303 fps= 19 q=41.0 size=    1792KiB time=00:00:06.02 bitrate=2438.6kbits/s speed=0.387x elapsed=0:00:15.57    \nframe=  320 fps= 20 q=40.0 size=    1792KiB time=00:00:06.36 bitrate=2308.2kbits/s speed=0.395x elapsed=0:00:16.08    \nframe=  336 fps= 20 q=40.0 size=    1792KiB time=00:00:06.68 bitrate=2197.7kbits/s speed=0.402x elapsed=0:00:16.60    \nframe=  346 fps= 20 q=41.0 size=    2048KiB time=00:00:06.88 bitrate=2438.6kbits/s speed=0.402x elapsed=0:00:17.10    \nframe=  356 fps= 20 q=41.0 size=    2048KiB time=00:00:07.08 bitrate=2369.7kbits/s speed=0.402x elapsed=0:00:17.62    \nframe=  372 fps= 21 q=41.0 size=    2048KiB time=00:00:07.40 bitrate=2267.2kbits/s speed=0.408x elapsed=0:00:18.14    \nframe=  376 fps= 20 q=41.0 size=    2048KiB time=00:00:07.50 bitrate=2237.0kbits/s speed=0.402x elapsed=0:00:18.65    \nframe=  394 fps= 21 q=40.0 size=    2304KiB time=00:00:07.84 bitrate=2407.5kbits/s speed=0.409x elapsed=0:00:19.18    \nframe=  410 fps= 21 q=41.0 size=    2304KiB time=00:00:08.16 bitrate=2313.1kbits/s speed=0.414x elapsed=0:00:19.69    \nframe=  418 fps= 21 q=41.0 size=    2304KiB time=00:00:08.40 bitrate=2247.0kbits/s speed=0.416x elapsed=0:00:20.20    \nframe=  430 fps= 21 q=41.0 size=    2304KiB time=00:00:08.56 bitrate=2205.0kbits/s speed=0.413x elapsed=0:00:20.72    \nframe=  439 fps= 21 q=41.0 size=    2560KiB time=00:00:08.74 bitrate=2399.5kbits/s speed=0.411x elapsed=0:00:21.24    \nframe=  453 fps= 21 q=41.0 size=    2560KiB time=00:00:09.02 bitrate=2325.0kbits/s speed=0.415x elapsed=0:00:21.75    \nframe=  461 fps= 21 q=42.0 size=    2560KiB time=00:00:09.18 bitrate=2284.5kbits/s speed=0.412x elapsed=0:00:22.27    \nframe=  475 fps= 21 q=40.0 size=    2816KiB time=00:00:09.46 bitrate=2438.6kbits/s speed=0.415x elapsed=0:00:22.78    \nframe=  488 fps= 21 q=-1.0 size=    2816KiB time=00:00:09.72 bitrate=2373.4kbits/s speed=0.417x elapsed=0:00:23.30    \n[mp4 @ 000001be8f059b40] Starting second pass: moving the moov atom to the beginning of the file\n[out#0/mp4 @ 000001be8f059a40] video:2968KiB audio:0KiB subtitle:0KiB other streams:0KiB global headers:0KiB muxing overhead: 0.226637%\nframe=  500 fps= 21 q=-1.0 Lsize=    2974KiB time=00:00:09.96 bitrate=2446.3kbits/s speed=0.42x elapsed=0:00:23.71    \n[libx264 @ 000001be8f05cac0] frame I:2     Avg QP:36.45  size: 29000\n[libx264 @ 000001be8f05cac0] frame P:126   Avg QP:39.58  size: 11379\n[libx264 @ 000001be8f05cac0] frame B:372   Avg QP:42.89  size:  4157\n[libx264 @ 000001be8f05cac0] consecutive B-frames:  0.8%  0.0%  0.0% 99.2%\n[libx264 @ 000001be8f05cac0] mb I  I16..4: 52.7% 42.0%  5.2%\n[libx264 @ 000001be8f05cac0] mb P  I16..4:  4.8%  5.0%  0.3%  P16..4: 29.2%  2.5%  1.9%  0.0%  0.0%    skip:56.4%\n[libx264 @ 000001be8f05cac0] mb B  I16..4:  0.1%  0.2%  0.0%  B16..8: 40.7%  1.0%  0.1%  direct: 0.4%  skip:57.4%  L0:38.0% L1:61.3% BI: 0.6%\n[libx264 @ 000001be8f05cac0] 8x8 transform intra:49.6% inter:88.6%\n[libx264 @ 000001be8f05cac0] direct mvs  spatial:97.3% temporal:2.7%\n[libx264 @ 000001be8f05cac0] coded y,uvDC,uvAC intra: 23.0% 40.2% 13.8% inter: 1.8% 3.6% 0.1%\n[libx264 @ 000001be8f05cac0] i16 v,h,dc,p: 32% 28%  5% 35%\n[libx264 @ 000001be8f05cac0] i8 v,h,dc,ddl,ddr,vr,hd,vl,hu: 10%  6%  7% 11% 16% 15% 14% 12%  9%\n[libx264 @ 000001be8f05cac0] i4 v,h,dc,ddl,ddr,vr,hd,vl,hu: 13% 15%  8%  9% 14% 14% 10%  8% 10%\n[libx264 @ 000001be8f05cac0] i8c dc,h,v,p: 47% 24% 17% 12%\n[libx264 @ 000001be8f05cac0] Weighted P-Frames: Y:0.0% UV:0.0%\n[libx264 @ 000001be8f05cac0] ref P L0: 55.5% 13.3% 19.1%  5.7%  6.4%\n[libx264 @ 000001be8f05cac0] ref B L0: 89.6%  7.7%  2.0%  0.7%\n[libx264 @ 000001be8f05cac0] ref B L1: 96.8%  3.2%\n[libx264 @ 000001be8f05cac0] kb/s:2430.42\n",
  "seconds": 24.86030626296997,
  "probe_out": {}
}